<?xml version="1.0" encoding="utf-8"?>
<svg xmlns="http://www.w3.org/2000/svg" shape-rendering="geometricPrecision" text-rendering="geometricPrecision" image-rendering="optimizeQuality" fill-rule="evenodd" clip-rule="evenodd" viewBox="0 0 512.003 500.162">
    <style type="text/css">.st0{fill:#45A16D;fill-rule:evenodd;clip-rule:evenodd;}</style>
    <g><path class="st0" d="M37.001 466.747C15.459 472.871 3.25 484.081 0 500.162h512.003c-12.96-22.999-36.544-37.54-79.502-36.5h-.832c6.541-36.083 9.791-70.54 7.207-102.083-2.666-33.084-11.709-63.041-29.917-88.417a6.446 6.446 0 00-4.333-2.749c-3.541-.542-6.834 1.833-7.375 5.374-5.416 34.085-6.083 68.752-6.749 102.751l-.126 6.541c-.167 8.918 0 16.291.167 22.791.458 17.544.708 28.584-7.626 47.25-6.999-44.25-11.541-88.707-13.458-133.623-2.042-48.042-1.124-96.751 2.918-146.46.291-3.541-2.375-6.667-5.959-6.958a6.483 6.483 0 00-6.834 5.041c-8.541 30.46-15.583 61.877-20.874 94.293-5.334 32.499-8.916 66-10.626 100.626v.748l.918 25.751c-13.292-44.541-24.625-89.542-29.459-134.207-6.457-59.626-1.376-118.751 25.916-175.668 1.542-3.208.167-7.083-3.041-8.583-2.749-1.292-5.916-.5-7.792 1.748-27.957 34.209-46.166 80.377-54.499 138.71-8.251 57.709-6.875 127.417 4.292 209.25 0 .124.04.25.083.417l7.499 37.583h-47.459l9.125-45.709c.044-.124.044-.248.084-.415 13.291-97.75 14.958-181.043 5.124-249.959-9.958-69.543-31.624-124.584-64.915-165.334-1.833-2.25-5.043-3.042-7.792-1.75-3.208 1.541-4.583 5.375-3.043 8.582C195.918 77.537 202 148.497 194.251 220.039c-6.124 56.666-20.958 113.748-38.125 170.167l1.457-40.626v-.751c-2.041-41.375-6.333-81.416-12.667-120.249-6.333-38.751-14.748-76.292-24.956-112.708-.709-3.084-3.584-5.292-6.834-5.001a6.512 6.512 0 00-5.959 6.958c4.876 59.459 6.002 117.793 3.5 175.335-2.375 55.291-8.041 109.999-16.833 164.498-15.041-27.749-13.999-41.334-12.125-65.458.501-6.457 1.042-13.625 1.416-22.625.876-21.292.542-42.833-.791-64.333-1.374-22.25-3.916-44.541-7.416-66.624-.541-3.541-3.875-5.916-7.376-5.375a6.449 6.449 0 00-4.332 2.749c-21.626 30.124-32.375 65.75-35.542 105.126-3.126 38.792 1.082 81.208 9.333 125.625z"/></g>
</svg>